<svg clip-rule="evenodd" fill-rule="evenodd" stroke-linejoin="round" stroke-miterlimit="2" viewBox="0 0 64 64" xmlns="http://www.w3.org/2000/svg"><path d="m-192-320h1280v800h-1280z" fill="none"/><path d="m40 14.62c7.91 3.16 13.505 10.896 13.505 19.928 0 11.838-9.611 21.449-21.449 21.449s-21.449-9.611-21.449-21.449c0-8.99 5.542-16.695 13.393-19.883v4.332c-5.616 2.918-9.456 8.789-9.456 15.551 0 9.665 7.847 17.512 17.512 17.512s17.512-7.847 17.512-17.512c0-6.806-3.891-12.711-9.568-15.608z"/><path d="m34.056 9.886c0-1.104-.896-2-2-2s-2 .896-2 2v24c0 1.104.896 2 2 2s2-.896 2-2z"/></svg>